<?xml version="1.0" standalone="no"?>
<!DOCTYPE svg PUBLIC "-//W3C//DTD SVG 20010904//EN"
 "http://www.w3.org/TR/2001/REC-SVG-20010904/DTD/svg10.dtd">
<svg version="1.0" xmlns="http://www.w3.org/2000/svg"
 width="512.000000pt" height="512.000000pt" viewBox="0 0 512.000000 512.000000"
 preserveAspectRatio="xMidYMid meet">

<g transform="translate(0.000000,512.000000) scale(0.100000,-0.100000)"
fill="#ffffff" stroke="none">
<path d="M703 5100 c-13 -11 -24 -38 -28 -62 -3 -24 -5 -563 -3 -1199 3 -1121
4 -1158 22 -1178 26 -29 86 -29 112 0 18 20 19 56 22 1165 l2 1144 894 0 c867
0 896 -1 957 -20 114 -36 197 -115 239 -226 19 -52 20 -77 20 -532 0 -276 4
-491 10 -511 18 -63 -2 -60 531 -61 459 0 491 -1 550 -20 114 -36 197 -115
239 -226 20 -54 20 -71 20 -1639 l0 -1585 -1730 0 -1730 0 -2 1144 c-3 1109
-4 1145 -22 1165 -26 29 -86 29 -112 0 -18 -20 -19 -57 -22 -1178 -2 -636 0
-1175 3 -1199 4 -24 15 -51 28 -62 21 -20 41 -20 1857 -20 1816 0 1836 0 1857
20 13 11 24 38 28 62 3 24 5 765 3 1648 l-3 1605 -22 66 c-13 36 -40 92 -62
125 -25 37 -302 322 -762 781 -636 633 -732 725 -786 752 -125 62 -95 61
-1139 61 -933 0 -951 0 -971 -20z m2812 -920 l410 -410 -413 0 -412 0 0 410
c0 226 1 410 3 410 1 0 187 -184 412 -410z"/>
</g>
</svg>
