<?xml version="1.0" standalone="no"?>
<!DOCTYPE svg PUBLIC "-//W3C//DTD SVG 20010904//EN"
 "http://www.w3.org/TR/2001/REC-SVG-20010904/DTD/svg10.dtd">
<svg version="1.0" xmlns="http://www.w3.org/2000/svg"
 width="512.000000pt" height="512.000000pt" viewBox="0 0 512.000000 512.000000"
 preserveAspectRatio="xMidYMid meet">

<g transform="translate(0.000000,512.000000) scale(0.100000,-0.100000)"
fill="#ffffff" stroke="none">
<path d="M3135 4380 c-487 -108 -1382 -440 -1577 -585 -93 -68 -202 -232 -428
-640 -156 -282 -183 -324 -347 -553 -269 -374 -402 -605 -443 -766 -24 -96
-25 -145 -4 -217 56 -187 217 -388 566 -704 140 -128 162 -144 215 -158 177
-50 547 -49 1055 3 208 21 164 8 654 198 294 115 266 111 560 73 137 -18 303
-35 369 -38 116 -5 122 -5 173 21 212 107 593 664 786 1147 70 177 89 257 82
359 -14 203 -142 519 -338 831 -101 161 -127 195 -271 356 -265 296 -550 543
-733 635 -123 61 -182 68 -319 38z m253 -180 c144 -77 389 -288 641 -555 138
-146 212 -244 313 -412 202 -338 310 -626 295 -787 -15 -152 -152 -453 -354
-777 -150 -240 -333 -468 -407 -506 -40 -21 -155 -14 -471 27 -153 20 -260 30
-295 26 -66 -6 -181 -45 -490 -166 -124 -48 -247 -94 -275 -103 -159 -50
-1068 -87 -1169 -47 -49 18 -309 257 -469 430 -98 106 -190 242 -213 315 -27
84 -11 156 70 319 72 145 141 252 378 586 123 173 195 289 315 505 287 516
344 593 501 673 241 124 756 315 1160 432 312 90 368 95 470 40z"/>
<path d="M1677 3053 c-101 -54 -140 -98 -177 -200 -64 -179 -120 -374 -114
-399 14 -54 93 -73 131 -31 12 12 43 95 73 190 28 93 60 188 69 211 19 42 58
75 132 110 61 29 72 83 26 134 -28 31 -61 27 -140 -15z"/>
<path d="M3605 1789 c-39 -39 -100 -98 -138 -130 l-68 -59 -195 0 c-194 0
-195 0 -219 -25 -16 -15 -25 -36 -25 -55 0 -19 9 -40 25 -55 24 -25 24 -25
235 -25 249 0 240 -3 372 116 185 166 220 224 168 279 -42 45 -76 35 -155 -46z"/>
</g>
</svg>
