<?xml version="1.0" standalone="no"?>
<!DOCTYPE svg PUBLIC "-//W3C//DTD SVG 20010904//EN"
 "http://www.w3.org/TR/2001/REC-SVG-20010904/DTD/svg10.dtd">
<svg version="1.0" xmlns="http://www.w3.org/2000/svg"
 width="512.000000pt" height="512.000000pt" viewBox="0 0 512.000000 512.000000"
 preserveAspectRatio="xMidYMid meet">

<g transform="translate(0.000000,512.000000) scale(0.100000,-0.100000)"
fill="#ffffff" stroke="none">
<path d="M3510 5098 c-28 -20 -93 -149 -491 -982 -252 -528 -460 -960 -461
-962 -2 -1 -208 425 -458 948 -333 697 -462 956 -483 974 -33 28 -92 32 -136
10 -46 -24 -112 -104 -146 -179 -88 -193 -103 -445 -41 -702 33 -134 62 -206
242 -584 130 -275 153 -315 178 -326 50 -21 106 14 106 67 0 7 -74 167 -164
357 -165 350 -202 443 -231 583 -20 101 -20 304 0 400 23 108 91 246 111 226
13 -13 1314 -2740 1310 -2746 -7 -11 -365 -187 -369 -182 -3 3 -120 248 -262
545 -141 297 -264 548 -272 558 -38 42 -123 7 -123 -50 0 -16 70 -174 156
-353 207 -433 189 -379 149 -437 -18 -26 -51 -58 -74 -71 -41 -23 -44 -23
-254 -16 -175 5 -229 3 -306 -10 -243 -43 -455 -152 -640 -331 -169 -164 -292
-356 -365 -576 -51 -153 -69 -269 -64 -419 4 -109 9 -136 36 -209 112 -298
385 -526 715 -596 100 -22 267 -19 363 5 236 60 427 225 562 488 33 65 149
304 257 532 109 228 198 416 200 418 1 1 109 -222 239 -495 131 -274 258 -530
282 -570 89 -143 240 -281 376 -342 115 -53 180 -65 328 -65 149 1 228 17 361
74 260 111 485 364 544 612 41 176 4 442 -95 669 -180 416 -546 718 -957 790
-81 15 -270 17 -408 6 -94 -8 -103 -7 -145 15 -46 24 -106 92 -116 132 -4 16
43 124 160 375 91 194 166 363 166 375 0 57 -88 87 -127 44 -11 -13 -80 -152
-154 -310 -74 -159 -136 -288 -139 -288 -3 1 -56 108 -118 238 l-113 237 473
987 c260 544 475 988 478 988 14 0 71 -112 92 -180 20 -66 23 -95 23 -250 0
-266 -14 -311 -261 -828 -91 -190 -154 -335 -154 -353 0 -59 73 -91 118 -51
23 20 338 681 377 792 126 356 97 750 -72 958 -39 48 -98 82 -141 82 -16 0
-44 -10 -62 -22z m-1167 -3169 c57 -118 109 -228 116 -245 12 -30 4 -49 -249
-580 -144 -302 -283 -580 -308 -619 -101 -152 -252 -264 -403 -300 -91 -21
-239 -19 -331 4 -260 67 -481 259 -571 497 -32 85 -31 310 1 432 127 472 475
816 908 898 75 14 124 15 304 9 205 -6 218 -6 272 15 32 12 79 41 105 65 26
23 49 42 51 40 2 -1 49 -99 105 -216z m670 107 c67 -34 136 -40 290 -25 273
26 507 -33 723 -182 310 -214 524 -610 524 -968 0 -177 -61 -312 -205 -457
-107 -107 -207 -170 -345 -216 -85 -28 -108 -31 -215 -32 -136 -1 -196 13
-310 72 -83 43 -222 177 -273 264 -36 61 -652 1346 -652 1360 0 8 387 207 405
207 6 1 32 -10 58 -23z"/>
<path d="M1479 1735 c-229 -56 -427 -242 -578 -543 -79 -158 -98 -272 -66
-397 46 -175 186 -307 372 -351 196 -46 403 46 535 240 44 64 341 673 358 734
33 120 -31 231 -162 280 -134 50 -337 66 -459 37z m311 -150 c120 -28 170 -58
170 -102 0 -28 -278 -613 -332 -700 -48 -75 -111 -133 -187 -170 -47 -23 -69
-28 -136 -28 -68 0 -89 4 -139 29 -151 74 -226 236 -181 391 38 131 152 315
264 425 79 78 164 129 257 155 66 18 205 18 284 0z"/>
<path d="M3385 1734 c-89 -13 -210 -50 -257 -78 -29 -17 -66 -51 -83 -74 -27
-39 -30 -51 -30 -115 l1 -72 158 -330 c159 -331 194 -394 261 -472 44 -51 153
-125 220 -148 67 -24 193 -31 264 -15 135 30 265 130 325 252 86 171 71 327
-54 552 -145 262 -327 426 -535 481 -61 16 -215 27 -270 19z m256 -173 c166
-52 322 -208 439 -441 26 -52 53 -119 60 -149 48 -203 -112 -401 -325 -401
-40 0 -85 8 -120 21 -62 23 -149 97 -197 167 -44 64 -338 681 -338 710 0 47
77 88 215 112 72 13 190 4 266 -19z"/>
<path d="M2496 2439 c-54 -42 -24 -139 43 -139 73 0 103 88 47 136 -33 29 -55
30 -90 3z"/>
</g>
</svg>
